# xmcd
#
# Track frame offsets:
#	150
#	16936
#	33784
#	52172
#	69336
#	85553
#	100067
#	116469
#	129620
#	150684
#	165088
#	185063
#
# Disc length: 2639 seconds
#
# Revision: 3
# Processed by: cddbd v1.4PL0 Copyright (c) Steve Scherf et al.
# Submitted via: EasyCDDAExtractor 4.5.0.2
#
DISCID=8a0a4d0c
DTITLE=The Bellamy Brothers - Over The Line
DYEAR=1997
DGENRE=Country
TTITLE0=Over The Line
TTITLE1=Slow Hurry
TTITLE2=Afterglow
TTITLE3=Guilty Of The Crime
TTITLE4=Catahoula
TTITLE5=Passion's Thunder
TTITLE6=Tough Love
TTITLE7=Mama Likes To Reggae
TTITLE8=Hurricane Alley
TTITLE9=Wonderful Mistake
TTITLE10=Hangin' In
TTITLE11=My Wife Left Me For My Girlfriend
EXTD=
EXTT0=
EXTT1=
EXTT2=
EXTT3=
EXTT4=
EXTT5=
EXTT6=
EXTT7=
EXTT8=
EXTT9=
EXTT10=
EXTT11=
PLAYORDER=
